STARTFONT 2.1
FONT -MIT-13VG KST-Medium-R-Normal--13-4-200-200-P-7-ISO8859-1
SIZE 4 200 200
FONTBOUNDINGBOX 13 13 0 -2
STARTPROPERTIES 17
ADD_STYLE_NAME ""
AVERAGE_WIDTH 7
CHARSET_ENCODING "1"
CHARSET_REGISTRY "ISO8859"
DEFAULT_CHAR 0
FAMILY "13VG KST"
FONT_ASCENT 11
FONT_DESCENT 2
FOUNDRY "MIT"
PIXEL_SIZE 13
POINT_SIZE 4
RESOLUTION_X 200
RESOLUTION_Y 200
SETWIDTH_NAME "Normal"
SLANT "R"
SPACING "P"
WEIGHT_NAME "Medium"
ENDPROPERTIES
CHARS 121
STARTCHAR char1
ENCODING 1
SWIDTH 1500 0
DWIDTH 6 0
BBX 6 13 0 -2
BITMAP
20
20
20
20
20
20
20
20
A8
70
20
00
00
ENDCHAR
STARTCHAR char2
ENCODING 2
SWIDTH 2750 0
DWIDTH 11 0
BBX 11 13 0 -2
BITMAP
0000
0000
0000
00C0
0180
6180
7300
DF00
8600
DE40
73C0
0000
0000
ENDCHAR
STARTCHAR char3
ENCODING 3
SWIDTH 2750 0
DWIDTH 11 0
BBX 11 13 0 -2
BITMAP
0000
0700
0D80
1980
1900
1300
3600
3300
6180
7180
5F00
C000
C000
ENDCHAR
STARTCHAR char4
ENCODING 4
SWIDTH 2000 0
DWIDTH 8 0
BBX 8 13 0 -2
BITMAP
00
00
00
10
38
28
6C
44
C6
82
82
00
00
ENDCHAR
STARTCHAR char5
ENCODING 5
SWIDTH 1500 0
DWIDTH 6 0
BBX 6 13 0 -2
BITMAP
00
00
00
00
00
00
00
F8
08
08
00
00
00
ENDCHAR
STARTCHAR char6
ENCODING 6
SWIDTH 1500 0
DWIDTH 6 0
BBX 6 13 0 -2
BITMAP
00
00
38
60
C0
C0
F8
C0
C0
60
38
00
00
ENDCHAR
STARTCHAR char7
ENCODING 7
SWIDTH 1750 0
DWIDTH 7 0
BBX 7 13 0 -2
BITMAP
00
00
00
00
F8
4C
48
48
48
48
C8
0C
00
ENDCHAR
STARTCHAR char8
ENCODING 8
SWIDTH 1750 0
DWIDTH 7 0
BBX 7 13 0 -2
BITMAP
00
80
C0
60
20
30
30
70
58
C8
8C
00
00
ENDCHAR
STARTCHAR char11
ENCODING 11
SWIDTH 1500 0
DWIDTH 6 0
BBX 6 13 0 -2
BITMAP
00
20
70
A8
20
20
20
20
20
20
20
00
00
ENDCHAR
STARTCHAR char14
ENCODING 14
SWIDTH 3000 0
DWIDTH 12 0
BBX 12 13 0 -2
BITMAP
0000
0000
0000
0000
0000
7BC0
CE60
8420
8420
CE60
7BC0
0000
0000
ENDCHAR
STARTCHAR char15
ENCODING 15
SWIDTH 1750 0
DWIDTH 7 0
BBX 7 13 0 -2
BITMAP
60
30
10
18
08
7C
CC
84
84
CC
78
00
00
ENDCHAR
STARTCHAR char16
ENCODING 16
SWIDTH 2250 0
DWIDTH 9 0
BBX 9 13 0 -2
BITMAP
0000
0000
0000
7E00
C000
8000
8000
C000
7E00
0000
0000
0000
0000
ENDCHAR
STARTCHAR char17
ENCODING 17
SWIDTH 2250 0
DWIDTH 9 0
BBX 9 13 0 -2
BITMAP
0000
0000
0000
FC00
0600
0200
0200
0600
FC00
0000
0000
0000
0000
ENDCHAR
STARTCHAR char18
ENCODING 18
SWIDTH 2250 0
DWIDTH 9 0
BBX 9 13 0 -2
BITMAP
7C00
C600
8200
8200
8200
8200
8200
8200
8200
8200
8200
0000
0000
ENDCHAR
STARTCHAR char19
ENCODING 19
SWIDTH 2250 0
DWIDTH 9 0
BBX 9 13 0 -2
BITMAP
8200
8200
8200
8200
8200
8200
8200
8200
8200
C600
7C00
0000
0000
ENDCHAR
STARTCHAR char20
ENCODING 20
SWIDTH 2250 0
DWIDTH 9 0
BBX 9 13 0 -2
BITMAP
0000
8200
8200
FE00
C600
4400
6C00
2800
2800
3800
1000
0000
0000
ENDCHAR
STARTCHAR char21
ENCODING 21
SWIDTH 2000 0
DWIDTH 8 0
BBX 8 13 0 -2
BITMAP
00
FC
04
04
04
1C
04
04
04
04
FC
00
00
ENDCHAR
STARTCHAR char22
ENCODING 22
SWIDTH 2750 0
DWIDTH 11 0
BBX 11 13 0 -2
BITMAP
0000
0000
3E00
6300
F780
9C80
8880
9C80
F780
6300
3E00
0000
0000
ENDCHAR
STARTCHAR char23
ENCODING 23
SWIDTH 2250 0
DWIDTH 9 0
BBX 9 13 0 -2
BITMAP
0000
0000
0000
0000
2400
4200
FF00
4200
2400
0000
0000
0000
0000
ENDCHAR
STARTCHAR char24
ENCODING 24
SWIDTH 2250 0
DWIDTH 9 0
BBX 9 13 0 -2
BITMAP
0000
0000
0000
0000
0000
2000
4000
FF00
4000
2000
0000
0000
0000
ENDCHAR
STARTCHAR char25
ENCODING 25
SWIDTH 2250 0
DWIDTH 9 0
BBX 9 13 0 -2
BITMAP
0000
0000
0000
0000
0000
0400
0200
FF00
0200
0400
0000
0000
0000
ENDCHAR
STARTCHAR char26
ENCODING 26
SWIDTH 2250 0
DWIDTH 9 0
BBX 9 13 0 -2
BITMAP
0000
0000
0200
0400
7E00
0800
1000
7E00
2000
4000
0000
0000
0000
ENDCHAR
STARTCHAR char27
ENCODING 27
SWIDTH 1750 0
DWIDTH 7 0
BBX 7 13 0 -2
BITMAP
00
00
00
00
00
00
90
B0
68
48
00
00
00
ENDCHAR
STARTCHAR char28
ENCODING 28
SWIDTH 1500 0
DWIDTH 6 0
BBX 6 13 0 -2
BITMAP
08
10
20
40
80
40
20
10
08
00
F8
00
00
ENDCHAR
STARTCHAR char29
ENCODING 29
SWIDTH 1500 0
DWIDTH 6 0
BBX 6 13 0 -2
BITMAP
80
40
20
10
08
10
20
40
80
00
F8
00
00
ENDCHAR
STARTCHAR char30
ENCODING 30
SWIDTH 1500 0
DWIDTH 6 0
BBX 6 13 0 -2
BITMAP
00
00
00
00
00
F8
00
F8
00
F8
00
00
00
ENDCHAR
STARTCHAR char31
ENCODING 31
SWIDTH 2000 0
DWIDTH 8 0
BBX 8 13 0 -2
BITMAP
00
00
00
82
82
C6
44
6C
28
38
10
00
00
ENDCHAR
STARTCHAR char32
ENCODING 32
SWIDTH 1250 0
DWIDTH 5 0
BBX 5 13 0 -2
BITMAP
00
00
00
00
00
00
00
00
00
00
00
00
00
ENDCHAR
STARTCHAR char33
ENCODING 33
SWIDTH 750 0
DWIDTH 3 0
BBX 3 13 0 -2
BITMAP
00
40
40
40
40
40
40
40
00
40
40
00
00
ENDCHAR
STARTCHAR char34
ENCODING 34
SWIDTH 1750 0
DWIDTH 7 0
BBX 7 13 0 -2
BITMAP
D8
48
48
00
00
00
00
00
00
00
00
00
00
ENDCHAR
STARTCHAR char35
ENCODING 35
SWIDTH 1750 0
DWIDTH 7 0
BBX 7 13 0 -2
BITMAP
00
00
00
48
48
FC
48
48
FC
48
48
00
00
ENDCHAR
STARTCHAR char36
ENCODING 36
SWIDTH 2250 0
DWIDTH 9 0
BBX 9 13 0 -2
BITMAP
1000
7C00
D600
9000
D000
7C00
1600
1200
D600
7C00
1000
0000
0000
ENDCHAR
STARTCHAR char37
ENCODING 37
SWIDTH 2250 0
DWIDTH 9 0
BBX 9 13 0 -2
BITMAP
6000
9000
9200
6400
0800
1000
2000
4C00
9200
1200
0C00
0000
0000
ENDCHAR
STARTCHAR char38
ENCODING 38
SWIDTH 2500 0
DWIDTH 10 0
BBX 10 13 0 -2
BITMAP
0000
3800
6C00
6C00
3800
7700
5A00
9A00
8A00
CC00
7F00
3000
0000
ENDCHAR
STARTCHAR char39
ENCODING 39
SWIDTH 1000 0
DWIDTH 4 0
BBX 4 13 0 -2
BITMAP
C0
40
40
00
00
00
00
00
00
00
00
00
00
ENDCHAR
STARTCHAR char40
ENCODING 40
SWIDTH 1250 0
DWIDTH 5 0
BBX 5 13 0 -2
BITMAP
20
60
40
C0
80
80
80
80
80
C0
40
60
20
ENDCHAR
STARTCHAR char41
ENCODING 41
SWIDTH 1250 0
DWIDTH 5 0
BBX 5 13 0 -2
BITMAP
80
C0
40
60
20
20
20
20
20
60
40
C0
80
ENDCHAR
STARTCHAR char42
ENCODING 42
SWIDTH 2250 0
DWIDTH 9 0
BBX 9 13 0 -2
BITMAP
0000
0000
0000
0000
9200
5400
3800
FE00
3800
5400
9200
0000
0000
ENDCHAR
STARTCHAR char43
ENCODING 43
SWIDTH 1500 0
DWIDTH 6 0
BBX 6 13 0 -2
BITMAP
00
00
00
00
00
20
20
F8
20
20
00
00
00
ENDCHAR
STARTCHAR char44
ENCODING 44
SWIDTH 750 0
DWIDTH 3 0
BBX 3 13 0 -2
BITMAP
00
00
00
00
00
00
00
00
00
40
40
40
80
ENDCHAR
STARTCHAR char45
ENCODING 45
SWIDTH 1500 0
DWIDTH 6 0
BBX 6 13 0 -2
BITMAP
00
00
00
00
00
00
00
F8
00
00
00
00
00
ENDCHAR
STARTCHAR char46
ENCODING 46
SWIDTH 750 0
DWIDTH 3 0
BBX 3 13 0 -2
BITMAP
00
00
00
00
00
00
00
00
00
C0
C0
00
00
ENDCHAR
STARTCHAR char47
ENCODING 47
SWIDTH 2000 0
DWIDTH 8 0
BBX 8 13 0 -2
BITMAP
02
02
04
04
08
08
10
10
20
20
40
40
00
ENDCHAR
STARTCHAR char48
ENCODING 48
SWIDTH 2250 0
DWIDTH 9 0
BBX 9 13 0 -2
BITMAP
0000
1C00
3600
6300
4100
4100
4100
4100
6300
3600
1C00
0000
0000
ENDCHAR
STARTCHAR char49
ENCODING 49
SWIDTH 2250 0
DWIDTH 9 0
BBX 9 13 0 -2
BITMAP
0000
0800
1800
0800
0800
0800
0800
0800
0800
0800
1C00
0000
0000
ENDCHAR
STARTCHAR char50
ENCODING 50
SWIDTH 2250 0
DWIDTH 9 0
BBX 9 13 0 -2
BITMAP
0000
7C00
C600
8600
0600
0C00
1800
3000
6000
C000
FE00
0000
0000
ENDCHAR
STARTCHAR char51
ENCODING 51
SWIDTH 2250 0
DWIDTH 9 0
BBX 9 13 0 -2
BITMAP
0000
7C00
CE00
8600
0600
3C00
0400
0600
8600
CE00
7C00
0000
0000
ENDCHAR
STARTCHAR char52
ENCODING 52
SWIDTH 2250 0
DWIDTH 9 0
BBX 9 13 0 -2
BITMAP
0000
1C00
3400
2400
6400
4400
C400
8400
FE00
0400
0400
0000
0000
ENDCHAR
STARTCHAR char53
ENCODING 53
SWIDTH 2250 0
DWIDTH 9 0
BBX 9 13 0 -2
BITMAP
0000
7E00
4000
4000
5C00
6600
4200
0200
0200
6600
3C00
0000
0000
ENDCHAR
STARTCHAR char54
ENCODING 54
SWIDTH 2250 0
DWIDTH 9 0
BBX 9 13 0 -2
BITMAP
0000
3C00
6600
C000
8000
BC00
C600
8200
8200
C600
7C00
0000
0000
ENDCHAR
STARTCHAR char55
ENCODING 55
SWIDTH 2250 0
DWIDTH 9 0
BBX 9 13 0 -2
BITMAP
0000
FE00
0200
0600
0400
0C00
0800
1800
1000
3000
2000
0000
0000
ENDCHAR
STARTCHAR char56
ENCODING 56
SWIDTH 2250 0
DWIDTH 9 0
BBX 9 13 0 -2
BITMAP
0000
7C00
C600
C600
6C00
3800
7C00
C600
8200
C600
7C00
0000
0000
ENDCHAR
STARTCHAR char57
ENCODING 57
SWIDTH 2250 0
DWIDTH 9 0
BBX 9 13 0 -2
BITMAP
0000
7C00
C600
8200
8200
C600
7E00
0200
0600
CC00
7800
0000
0000
ENDCHAR
STARTCHAR char58
ENCODING 58
SWIDTH 750 0
DWIDTH 3 0
BBX 3 13 0 -2
BITMAP
00
00
00
00
C0
C0
00
00
C0
C0
00
00
00
ENDCHAR
STARTCHAR char59
ENCODING 59
SWIDTH 1000 0
DWIDTH 4 0
BBX 4 13 0 -2
BITMAP
00
00
00
00
60
60
00
00
60
60
40
80
00
ENDCHAR
STARTCHAR char60
ENCODING 60
SWIDTH 1500 0
DWIDTH 6 0
BBX 6 13 0 -2
BITMAP
00
08
10
20
40
80
40
20
10
08
00
00
00
ENDCHAR
STARTCHAR char61
ENCODING 61
SWIDTH 1500 0
DWIDTH 6 0
BBX 6 13 0 -2
BITMAP
00
00
00
00
00
00
F8
00
F8
00
00
00
00
ENDCHAR
STARTCHAR char62
ENCODING 62
SWIDTH 1500 0
DWIDTH 6 0
BBX 6 13 0 -2
BITMAP
00
80
40
20
10
08
10
20
40
80
00
00
00
ENDCHAR
STARTCHAR char63
ENCODING 63
SWIDTH 1750 0
DWIDTH 7 0
BBX 7 13 0 -2
BITMAP
00
78
CC
84
0C
18
30
20
00
20
20
00
00
ENDCHAR
STARTCHAR char64
ENCODING 64
SWIDTH 2250 0
DWIDTH 9 0
BBX 9 13 0 -2
BITMAP
0000
0000
7E00
C300
9900
BD00
A500
A700
BE00
C000
7F00
0000
0000
ENDCHAR
STARTCHAR char65
ENCODING 65
SWIDTH 2500 0
DWIDTH 10 0
BBX 10 13 0 -2
BITMAP
0000
1800
3C00
2400
6600
4200
7E00
4200
C300
8100
8100
0000
0000
ENDCHAR
STARTCHAR char66
ENCODING 66
SWIDTH 2250 0
DWIDTH 9 0
BBX 9 13 0 -2
BITMAP
0000
FC00
8600
8200
8600
FC00
8600
8200
8200
8600
FC00
0000
0000
ENDCHAR
STARTCHAR char67
ENCODING 67
SWIDTH 2250 0
DWIDTH 9 0
BBX 9 13 0 -2
BITMAP
0000
3C00
6600
C200
8000
8000
8000
8000
C200
6600
3C00
0000
0000
ENDCHAR
STARTCHAR char68
ENCODING 68
SWIDTH 2250 0
DWIDTH 9 0
BBX 9 13 0 -2
BITMAP
0000
F800
8C00
8600
8200
8200
8200
8200
8600
8C00
F800
0000
0000
ENDCHAR
STARTCHAR char69
ENCODING 69
SWIDTH 2000 0
DWIDTH 8 0
BBX 8 13 0 -2
BITMAP
00
FC
80
80
80
F8
80
80
80
80
FC
00
00
ENDCHAR
STARTCHAR char70
ENCODING 70
SWIDTH 2000 0
DWIDTH 8 0
BBX 8 13 0 -2
BITMAP
00
FC
80
80
80
F8
80
80
80
80
80
00
00
ENDCHAR
STARTCHAR char71
ENCODING 71
SWIDTH 2500 0
DWIDTH 10 0
BBX 10 13 0 -2
BITMAP
0000
3E00
6300
C100
8000
8000
8F00
8100
C100
6300
3E00
0000
0000
ENDCHAR
STARTCHAR char72
ENCODING 72
SWIDTH 2250 0
DWIDTH 9 0
BBX 9 13 0 -2
BITMAP
0000
8200
8200
8200
8200
FE00
8200
8200
8200
8200
8200
0000
0000
ENDCHAR
STARTCHAR char73
ENCODING 73
SWIDTH 1000 0
DWIDTH 4 0
BBX 4 13 0 -2
BITMAP
00
40
40
40
40
40
40
40
40
40
40
00
00
ENDCHAR
STARTCHAR char74
ENCODING 74
SWIDTH 1750 0
DWIDTH 7 0
BBX 7 13 0 -2
BITMAP
00
08
08
08
08
08
08
08
88
D8
70
00
00
ENDCHAR
STARTCHAR char75
ENCODING 75
SWIDTH 2000 0
DWIDTH 8 0
BBX 8 13 0 -2
BITMAP
00
84
8C
98
B0
E0
E0
B0
98
8C
84
00
00
ENDCHAR
STARTCHAR char76
ENCODING 76
SWIDTH 2000 0
DWIDTH 8 0
BBX 8 13 0 -2
BITMAP
00
40
40
40
40
40
40
40
40
40
7C
00
00
ENDCHAR
STARTCHAR char77
ENCODING 77
SWIDTH 2750 0
DWIDTH 11 0
BBX 11 13 0 -2
BITMAP
0000
8080
C180
C180
E380
A280
B680
9480
9C80
8880
8880
0000
0000
ENDCHAR
STARTCHAR char78
ENCODING 78
SWIDTH 2250 0
DWIDTH 9 0
BBX 9 13 0 -2
BITMAP
0000
C200
C200
E200
A200
B200
9200
9A00
8A00
8E00
8600
0000
0000
ENDCHAR
STARTCHAR char79
ENCODING 79
SWIDTH 2250 0
DWIDTH 9 0
BBX 9 13 0 -2
BITMAP
0000
3800
6C00
C600
8200
8200
8200
8200
C600
6C00
3800
0000
0000
ENDCHAR
STARTCHAR char80
ENCODING 80
SWIDTH 2000 0
DWIDTH 8 0
BBX 8 13 0 -2
BITMAP
00
F8
8C
84
84
8C
F8
80
80
80
80
00
00
ENDCHAR
STARTCHAR char81
ENCODING 81
SWIDTH 2250 0
DWIDTH 9 0
BBX 9 13 0 -2
BITMAP
0000
3800
6C00
C600
8200
8200
8200
8200
C600
6C00
3C00
0600
0300
ENDCHAR
STARTCHAR char82
ENCODING 82
SWIDTH 2000 0
DWIDTH 8 0
BBX 8 13 0 -2
BITMAP
00
F8
8C
84
84
8C
F8
B0
98
8C
84
00
00
ENDCHAR
STARTCHAR char83
ENCODING 83
SWIDTH 2250 0
DWIDTH 9 0
BBX 9 13 0 -2
BITMAP
0000
7C00
C600
8200
C000
7800
0C00
0600
8200
C600
7C00
0000
0000
ENDCHAR
STARTCHAR char84
ENCODING 84
SWIDTH 2250 0
DWIDTH 9 0
BBX 9 13 0 -2
BITMAP
0000
FE00
1000
1000
1000
1000
1000
1000
1000
1000
1000
0000
0000
ENDCHAR
STARTCHAR char85
ENCODING 85
SWIDTH 2250 0
DWIDTH 9 0
BBX 9 13 0 -2
BITMAP
0000
8200
8200
8200
8200
8200
8200
8200
8200
C600
7C00
0000
0000
ENDCHAR
STARTCHAR char86
ENCODING 86
SWIDTH 2250 0
DWIDTH 9 0
BBX 9 13 0 -2
BITMAP
0000
8200
8200
C600
4400
4400
6C00
2800
3800
3800
1000
0000
0000
ENDCHAR
STARTCHAR char87
ENCODING 87
SWIDTH 3250 0
DWIDTH 13 0
BBX 13 13 0 -2
BITMAP
0000
8020
8420
C460
4440
4E40
6EC0
2A80
2A80
3B80
1100
0000
0000
ENDCHAR
STARTCHAR char88
ENCODING 88
SWIDTH 2750 0
DWIDTH 11 0
BBX 11 13 0 -2
BITMAP
0000
8080
C180
6300
3600
1C00
1C00
3600
6300
C180
8080
0000
0000
ENDCHAR
STARTCHAR char89
ENCODING 89
SWIDTH 2250 0
DWIDTH 9 0
BBX 9 13 0 -2
BITMAP
0000
8200
C600
4400
6C00
2800
3800
1000
1000
1000
1000
0000
0000
ENDCHAR
STARTCHAR char90
ENCODING 90
SWIDTH 2000 0
DWIDTH 8 0
BBX 8 13 0 -2
BITMAP
00
FC
0C
18
10
30
20
60
40
C0
FC
00
00
ENDCHAR
STARTCHAR char91
ENCODING 91
SWIDTH 1250 0
DWIDTH 5 0
BBX 5 13 0 -2
BITMAP
70
40
40
40
40
40
40
40
40
40
40
70
00
ENDCHAR
STARTCHAR char92
ENCODING 92
SWIDTH 2000 0
DWIDTH 8 0
BBX 8 13 0 -2
BITMAP
80
C0
40
60
20
30
10
18
08
0C
04
06
02
ENDCHAR
STARTCHAR char93
ENCODING 93
SWIDTH 1250 0
DWIDTH 5 0
BBX 5 13 0 -2
BITMAP
70
10
10
10
10
10
10
10
10
10
10
70
00
ENDCHAR
STARTCHAR char95
ENCODING 95
SWIDTH 1500 0
DWIDTH 6 0
BBX 6 13 0 -2
BITMAP
00
00
00
00
00
00
00
00
00
00
00
FC
00
ENDCHAR
STARTCHAR char96
ENCODING 96
SWIDTH 750 0
DWIDTH 3 0
BBX 3 13 0 -2
BITMAP
00
C0
C0
40
40
00
00
00
00
00
00
00
00
ENDCHAR
STARTCHAR char97
ENCODING 97
SWIDTH 2000 0
DWIDTH 8 0
BBX 8 13 0 -2
BITMAP
00
00
00
00
70
88
08
78
88
88
74
00
00
ENDCHAR
STARTCHAR char98
ENCODING 98
SWIDTH 2000 0
DWIDTH 8 0
BBX 8 13 0 -2
BITMAP
00
80
80
80
B8
C4
84
84
84
C4
B8
00
00
ENDCHAR
STARTCHAR char99
ENCODING 99
SWIDTH 2000 0
DWIDTH 8 0
BBX 8 13 0 -2
BITMAP
00
00
00
00
38
44
80
80
80
44
38
00
00
ENDCHAR
STARTCHAR char100
ENCODING 100
SWIDTH 2000 0
DWIDTH 8 0
BBX 8 13 0 -2
BITMAP
00
04
04
04
74
8C
84
84
84
8C
74
00
00
ENDCHAR
STARTCHAR char101
ENCODING 101
SWIDTH 2000 0
DWIDTH 8 0
BBX 8 13 0 -2
BITMAP
00
00
00
00
78
84
84
FC
80
84
78
00
00
ENDCHAR
STARTCHAR char102
ENCODING 102
SWIDTH 1500 0
DWIDTH 6 0
BBX 6 13 0 -2
BITMAP
00
30
40
40
F0
40
40
40
40
40
40
00
00
ENDCHAR
STARTCHAR char103
ENCODING 103
SWIDTH 2000 0
DWIDTH 8 0
BBX 8 13 0 -2
BITMAP
00
00
00
00
7C
88
88
F0
40
78
84
84
78
ENDCHAR
STARTCHAR char104
ENCODING 104
SWIDTH 1750 0
DWIDTH 7 0
BBX 7 13 0 -2
BITMAP
00
80
80
80
B0
D8
88
88
88
88
88
00
00
ENDCHAR
STARTCHAR char105
ENCODING 105
SWIDTH 1000 0
DWIDTH 4 0
BBX 4 13 0 -2
BITMAP
00
40
40
00
40
40
40
40
40
40
40
00
00
ENDCHAR
STARTCHAR char106
ENCODING 106
SWIDTH 1250 0
DWIDTH 5 0
BBX 5 13 0 -2
BITMAP
00
20
20
00
20
20
20
20
20
20
20
60
C0
ENDCHAR
STARTCHAR char107
ENCODING 107
SWIDTH 1750 0
DWIDTH 7 0
BBX 7 13 0 -2
BITMAP
00
80
80
88
90
A0
C0
A0
90
88
84
00
00
ENDCHAR
STARTCHAR char108
ENCODING 108
SWIDTH 1000 0
DWIDTH 4 0
BBX 4 13 0 -2
BITMAP
00
40
40
40
40
40
40
40
40
40
40
00
00
ENDCHAR
STARTCHAR char109
ENCODING 109
SWIDTH 2250 0
DWIDTH 9 0
BBX 9 13 0 -2
BITMAP
0000
0000
0000
0000
A400
DA00
9200
9200
9200
9200
9200
0000
0000
ENDCHAR
STARTCHAR char110
ENCODING 110
SWIDTH 1750 0
DWIDTH 7 0
BBX 7 13 0 -2
BITMAP
00
00
00
00
B0
C8
88
88
88
88
88
00
00
ENDCHAR
STARTCHAR char111
ENCODING 111
SWIDTH 2000 0
DWIDTH 8 0
BBX 8 13 0 -2
BITMAP
00
00
00
30
78
CC
84
84
CC
78
30
00
00
ENDCHAR
STARTCHAR char112
ENCODING 112
SWIDTH 2000 0
DWIDTH 8 0
BBX 8 13 0 -2
BITMAP
00
00
00
00
B8
C4
84
84
84
C4
B8
80
80
ENDCHAR
STARTCHAR char113
ENCODING 113
SWIDTH 2000 0
DWIDTH 8 0
BBX 8 13 0 -2
BITMAP
00
00
00
00
74
8C
84
84
84
8C
74
04
04
ENDCHAR
STARTCHAR char114
ENCODING 114
SWIDTH 1500 0
DWIDTH 6 0
BBX 6 13 0 -2
BITMAP
00
00
00
00
B0
E0
C0
80
80
80
80
00
00
ENDCHAR
STARTCHAR char115
ENCODING 115
SWIDTH 1750 0
DWIDTH 7 0
BBX 7 13 0 -2
BITMAP
00
00
00
00
70
88
C0
70
18
88
70
00
00
ENDCHAR
STARTCHAR char116
ENCODING 116
SWIDTH 1250 0
DWIDTH 5 0
BBX 5 13 0 -2
BITMAP
00
40
40
40
E0
40
40
40
40
40
60
00
00
ENDCHAR
STARTCHAR char117
ENCODING 117
SWIDTH 2000 0
DWIDTH 8 0
BBX 8 13 0 -2
BITMAP
00
00
00
00
84
84
84
84
84
C4
B8
00
00
ENDCHAR
STARTCHAR char118
ENCODING 118
SWIDTH 2250 0
DWIDTH 9 0
BBX 9 13 0 -2
BITMAP
0000
0000
0000
0000
8200
C600
4400
6C00
2800
3800
1000
0000
0000
ENDCHAR
STARTCHAR char119
ENCODING 119
SWIDTH 2750 0
DWIDTH 11 0
BBX 11 13 0 -2
BITMAP
0000
0000
0000
0000
8880
8880
DD80
5D00
7700
2200
2200
0000
0000
ENDCHAR
STARTCHAR char120
ENCODING 120
SWIDTH 2250 0
DWIDTH 9 0
BBX 9 13 0 -2
BITMAP
0000
0000
8200
C600
6C00
3800
1000
3800
6C00
C600
8200
0000
0000
ENDCHAR
STARTCHAR char121
ENCODING 121
SWIDTH 2250 0
DWIDTH 9 0
BBX 9 13 0 -2
BITMAP
0000
0000
0000
0000
8200
C600
4400
6C00
3800
3800
1000
3000
E000
ENDCHAR
STARTCHAR char122
ENCODING 122
SWIDTH 2000 0
DWIDTH 8 0
BBX 8 13 0 -2
BITMAP
00
00
00
00
FC
0C
18
30
60
C0
FC
00
00
ENDCHAR
STARTCHAR char123
ENCODING 123
SWIDTH 1250 0
DWIDTH 5 0
BBX 5 13 0 -2
BITMAP
30
60
60
20
60
C0
C0
60
20
60
60
30
00
ENDCHAR
STARTCHAR char124
ENCODING 124
SWIDTH 1000 0
DWIDTH 4 0
BBX 4 13 0 -2
BITMAP
40
40
40
40
40
40
40
40
40
40
40
40
40
ENDCHAR
STARTCHAR char125
ENCODING 125
SWIDTH 1500 0
DWIDTH 6 0
BBX 6 13 0 -2
BITMAP
60
30
30
20
30
18
18
30
20
30
30
60
00
ENDCHAR
STARTCHAR char126
ENCODING 126
SWIDTH 1750 0
DWIDTH 7 0
BBX 7 13 0 -2
BITMAP
00
00
00
00
00
00
90
B0
68
48
00
00
00
ENDCHAR
ENDFONT
